<?xml version="1.0" encoding="utf-8"?>
<!-- Generator: Adobe Illustrator 25.3.1, SVG Export Plug-In . SVG Version: 6.00 Build 0)  -->
<svg version="1.1" id="Layer_1" xmlns="http://www.w3.org/2000/svg" xmlns:xlink="http://www.w3.org/1999/xlink" x="0px" y="0px"
	 viewBox="0 0 670.43 196.52" style="enable-background:new 0 0 670.43 196.52;" xml:space="preserve">
<style type="text/css">
	.st0{fill:#146635;}
	.st1{fill:#02A753;}
	.st2{fill:#E1F9EB;}
</style>
<g>
	<g>
		<path class="st0" d="M232.14,127.16c-4.6,0-8.72-0.78-12.38-2.33c-3.66-1.55-6.76-3.67-9.3-6.34c-2.54-2.67-4.48-5.76-5.8-9.27
			c-1.32-3.5-1.98-7.17-1.98-11c0-4.12,0.66-8,1.98-11.65c1.32-3.65,3.24-6.84,5.75-9.59c2.51-2.74,5.59-4.91,9.25-6.5
			c3.66-1.59,7.82-2.38,12.48-2.38c4.67,0,8.81,0.8,12.43,2.38c3.62,1.59,6.69,3.74,9.19,6.45c2.51,2.71,4.4,5.83,5.69,9.37
			c1.29,3.54,1.93,7.26,1.93,11.16c0,1.01-0.04,2-0.1,2.98c-0.07,0.98-0.17,1.83-0.31,2.55h-40.53c0.28,3.83,1.62,6.74,4.02,8.72
			c2.4,1.99,5.14,2.98,8.2,2.98c2.44,0,4.79-0.61,7.05-1.84c2.26-1.23,3.78-2.89,4.54-4.99l14.21,4.12
			c-2.16,4.48-5.5,8.13-10.03,10.95C243.91,125.75,238.48,127.16,232.14,127.16z M243.73,92.26c-0.35-3.61-1.6-6.46-3.76-8.56
			c-2.16-2.09-4.84-3.14-8.04-3.14c-3.27,0-5.97,1.07-8.1,3.2c-2.13,2.13-3.36,4.97-3.71,8.51H243.73z"/>
		<path class="st0" d="M268.81,46.96h16.72v58.84c0,4.33,1.78,6.5,5.33,6.5c0.84,0,1.76-0.13,2.77-0.38
			c1.01-0.25,1.93-0.63,2.77-1.14l2.19,13c-2.09,1.01-4.49,1.81-7.21,2.38c-2.72,0.58-5.26,0.87-7.63,0.87
			c-4.81,0-8.5-1.3-11.07-3.9c-2.58-2.6-3.87-6.36-3.87-11.27V46.96z"/>
		<path class="st0" d="M303.8,46.96h16.72v58.84c0,4.33,1.78,6.5,5.33,6.5c0.84,0,1.76-0.13,2.77-0.38
			c1.01-0.25,1.93-0.63,2.77-1.14l2.19,13c-2.09,1.01-4.49,1.81-7.21,2.38c-2.72,0.58-5.26,0.87-7.63,0.87
			c-4.81,0-8.5-1.3-11.07-3.9c-2.58-2.6-3.87-6.36-3.87-11.27V46.96z"/>
		<path class="st0" d="M365.23,127.16c-4.6,0-8.72-0.78-12.38-2.33c-3.66-1.55-6.76-3.67-9.3-6.34c-2.54-2.67-4.48-5.76-5.8-9.27
			c-1.32-3.5-1.98-7.17-1.98-11c0-4.12,0.66-8,1.98-11.65c1.32-3.65,3.24-6.84,5.75-9.59c2.51-2.74,5.59-4.91,9.25-6.5
			c3.66-1.59,7.82-2.38,12.48-2.38c4.67,0,8.81,0.8,12.43,2.38c3.62,1.59,6.69,3.74,9.19,6.45c2.51,2.71,4.4,5.83,5.69,9.37
			c1.29,3.54,1.93,7.26,1.93,11.16c0,1.01-0.04,2-0.1,2.98c-0.07,0.98-0.17,1.83-0.31,2.55h-40.53c0.28,3.83,1.62,6.74,4.02,8.72
			c2.4,1.99,5.14,2.98,8.2,2.98c2.44,0,4.79-0.61,7.05-1.84c2.26-1.23,3.78-2.89,4.54-4.99l14.21,4.12
			c-2.16,4.48-5.5,8.13-10.03,10.95C377,125.75,371.57,127.16,365.23,127.16z M376.83,92.26c-0.35-3.61-1.6-6.46-3.76-8.56
			c-2.16-2.09-4.84-3.14-8.04-3.14c-3.27,0-5.97,1.07-8.1,3.2c-2.13,2.13-3.36,4.97-3.71,8.51H376.83z"/>
		<path class="st0" d="M454.97,126.07h-16.72V94.1c0-3.76-0.68-6.48-2.04-8.18c-1.36-1.7-3.15-2.55-5.38-2.55
			c-1.18,0-2.37,0.25-3.55,0.76c-1.18,0.51-2.33,1.21-3.45,2.11c-1.11,0.9-2.11,1.97-2.98,3.2c-0.87,1.23-1.55,2.56-2.04,4.01v32.62
			h-16.72V69.18h15.04v9.54c2.02-3.4,4.87-6.01,8.57-7.86c3.69-1.84,7.94-2.76,12.75-2.76c3.55,0,6.41,0.67,8.57,2
			c2.16,1.34,3.83,3.07,5.01,5.2c1.18,2.13,1.97,4.46,2.35,6.99c0.38,2.53,0.57,4.98,0.57,7.37V126.07z"/>
		<path class="st0" d="M516.6,127.16c-4.6,0-8.72-0.78-12.38-2.33c-3.66-1.55-6.76-3.67-9.3-6.34c-2.54-2.67-4.48-5.76-5.8-9.27
			c-1.32-3.5-1.98-7.17-1.98-11c0-4.12,0.66-8,1.98-11.65c1.32-3.65,3.24-6.84,5.75-9.59c2.51-2.74,5.59-4.91,9.25-6.5
			c3.66-1.59,7.82-2.38,12.48-2.38c4.67,0,8.81,0.8,12.43,2.38c3.62,1.59,6.69,3.74,9.19,6.45c2.51,2.71,4.4,5.83,5.69,9.37
			c1.29,3.54,1.93,7.26,1.93,11.16c0,1.01-0.04,2-0.1,2.98c-0.07,0.98-0.17,1.83-0.31,2.55H504.9c0.28,3.83,1.62,6.74,4.02,8.72
			c2.4,1.99,5.14,2.98,8.2,2.98c2.44,0,4.79-0.61,7.05-1.84c2.26-1.23,3.78-2.89,4.54-4.99l14.21,4.12
			c-2.16,4.48-5.5,8.13-10.03,10.95C528.37,125.75,522.94,127.16,516.6,127.16z M528.2,92.26c-0.35-3.61-1.6-6.46-3.76-8.56
			c-2.16-2.09-4.84-3.14-8.04-3.14c-3.27,0-5.97,1.07-8.1,3.2c-2.13,2.13-3.36,4.97-3.71,8.51H528.2z"/>
		<path class="st0" d="M575.11,127.16c-4.67,0-9.26-0.78-13.79-2.33c-4.53-1.55-8.36-3.81-11.49-6.77l5.95-10.62
			c3.34,2.38,6.6,4.23,9.77,5.53c3.17,1.3,6.22,1.95,9.14,1.95c2.16,0,3.83-0.4,5.01-1.19c1.18-0.79,1.78-1.95,1.78-3.47
			s-0.75-2.73-2.25-3.63c-1.5-0.9-4.13-1.86-7.89-2.87c-3.69-1.08-6.81-2.13-9.35-3.14c-2.54-1.01-4.61-2.13-6.22-3.36
			c-1.6-1.23-2.75-2.64-3.45-4.23c-0.7-1.59-1.04-3.47-1.04-5.63c0-2.89,0.56-5.53,1.67-7.91c1.11-2.38,2.65-4.41,4.6-6.07
			c1.95-1.66,4.27-2.96,6.95-3.9c2.68-0.94,5.59-1.41,8.72-1.41c4.11,0,7.96,0.58,11.54,1.73c3.59,1.16,7.05,3.25,10.39,6.29
			l-6.48,10.4c-3.13-2.24-5.92-3.86-8.36-4.88c-2.44-1.01-4.81-1.52-7.1-1.52c-1.81,0-3.34,0.38-4.6,1.14
			c-1.25,0.76-1.88,1.97-1.88,3.63c0,1.59,0.68,2.78,2.04,3.58c1.36,0.8,3.88,1.66,7.57,2.6c3.9,1.08,7.19,2.17,9.87,3.25
			c2.68,1.08,4.86,2.29,6.53,3.63c1.67,1.34,2.89,2.87,3.66,4.61c0.77,1.73,1.15,3.79,1.15,6.18c0,5.63-2.02,10.12-6.06,13.44
			C587.47,125.49,582,127.16,575.11,127.16z"/>
		<path class="st0" d="M618.77,126.07l-19.43-56.89h17.24l12.01,43.02l12.12-43.02h15.57l-19.33,56.89H618.77z"/>
	</g>
	<g>
		<path class="st1" d="M203.44,148.82c0-0.93,0.17-1.86,0.5-2.79c0.33-0.92,0.83-1.75,1.47-2.49c0.65-0.74,1.44-1.33,2.37-1.78
			c0.93-0.45,1.99-0.68,3.17-0.68c1.41,0,2.62,0.31,3.63,0.94s1.76,1.44,2.27,2.45l-1.92,1.29c-0.22-0.47-0.48-0.86-0.79-1.18
			c-0.31-0.32-0.64-0.58-1-0.76c-0.36-0.19-0.74-0.32-1.14-0.4s-0.77-0.12-1.14-0.12c-0.82,0-1.53,0.16-2.14,0.49
			c-0.61,0.33-1.12,0.76-1.54,1.3c-0.42,0.54-0.73,1.14-0.94,1.81c-0.21,0.67-0.32,1.34-0.32,2.01c0,0.76,0.12,1.48,0.37,2.16
			c0.25,0.68,0.59,1.29,1.04,1.81c0.44,0.52,0.97,0.94,1.58,1.26c0.61,0.31,1.28,0.47,2.01,0.47c0.38,0,0.77-0.05,1.17-0.14
			c0.4-0.09,0.79-0.25,1.16-0.46c0.37-0.21,0.71-0.48,1.03-0.8s0.57-0.71,0.78-1.16l2.03,1.16c-0.25,0.58-0.6,1.1-1.05,1.54
			c-0.45,0.44-0.96,0.82-1.53,1.12s-1.17,0.54-1.8,0.7c-0.63,0.16-1.26,0.24-1.87,0.24c-1.09,0-2.09-0.23-2.99-0.7
			c-0.9-0.47-1.68-1.07-2.34-1.82c-0.66-0.75-1.17-1.6-1.53-2.56C203.62,150.78,203.44,149.81,203.44,148.82z"/>
		<path class="st1" d="M225.66,156.79c-1.11,0-2.12-0.22-3.03-0.67s-1.69-1.03-2.35-1.77c-0.66-0.74-1.16-1.58-1.52-2.52
			s-0.54-1.92-0.54-2.91c0-1.03,0.19-2.02,0.57-2.97c0.38-0.95,0.9-1.78,1.56-2.51c0.66-0.73,1.45-1.31,2.36-1.74
			c0.91-0.43,1.9-0.64,2.98-0.64c1.11,0,2.12,0.23,3.03,0.69c0.91,0.46,1.69,1.06,2.34,1.8c0.65,0.74,1.15,1.58,1.51,2.52
			c0.36,0.94,0.54,1.9,0.54,2.87c0,1.03-0.19,2.02-0.56,2.97c-0.37,0.95-0.89,1.78-1.56,2.5c-0.67,0.72-1.46,1.3-2.37,1.73
			C227.71,156.58,226.72,156.79,225.66,156.79z M220.72,148.93c0,0.73,0.12,1.43,0.35,2.12s0.56,1.29,0.99,1.81
			c0.43,0.52,0.95,0.94,1.56,1.26c0.61,0.31,1.3,0.47,2.05,0.47c0.79,0,1.48-0.16,2.09-0.49c0.6-0.33,1.12-0.76,1.54-1.3
			c0.42-0.54,0.74-1.14,0.96-1.81c0.22-0.67,0.33-1.35,0.33-2.05c0-0.74-0.12-1.45-0.35-2.13c-0.23-0.68-0.56-1.27-0.99-1.79
			c-0.43-0.52-0.95-0.93-1.55-1.25c-0.6-0.31-1.28-0.47-2.02-0.47c-0.79,0-1.49,0.16-2.1,0.49c-0.61,0.33-1.13,0.75-1.55,1.28
			c-0.42,0.52-0.75,1.12-0.97,1.8C220.84,147.54,220.72,148.23,220.72,148.93z"/>
		<path class="st1" d="M238.09,145.76v10.92h-2.45v-15.51h1.92l8.87,11.19v-11.16h2.47v15.49h-2.03L238.09,145.76z"/>
		<path class="st1" d="M263.78,143.33h-5.16v13.35h-2.47v-13.35h-5.18v-2.16h12.8V143.33z"/>
		<path class="st1" d="M268.89,141.17h2.14l6.12,15.51h-2.58l-1.64-4.22h-5.99l-1.62,4.22h-2.6L268.89,141.17z M272.45,150.65
			l-2.49-6.66l-2.58,6.66H272.45z"/>
		<path class="st1" d="M291.26,152.68c0,0.63-0.13,1.19-0.38,1.68s-0.6,0.91-1.03,1.26c-0.43,0.34-0.94,0.6-1.52,0.79
			c-0.58,0.18-1.2,0.27-1.86,0.27h-7.41v-15.51h8c0.54,0,1.03,0.12,1.46,0.35c0.44,0.23,0.81,0.54,1.11,0.91
			c0.31,0.37,0.54,0.79,0.71,1.27c0.17,0.47,0.25,0.95,0.25,1.43c0,0.76-0.19,1.47-0.58,2.13c-0.39,0.66-0.94,1.15-1.65,1.47
			c0.89,0.26,1.59,0.74,2.11,1.43C291,150.85,291.26,151.69,291.26,152.68z M281.52,143.29v4.57h4.5c0.31,0,0.59-0.06,0.84-0.17
			c0.25-0.12,0.48-0.27,0.68-0.47c0.2-0.2,0.35-0.43,0.46-0.71c0.11-0.28,0.16-0.58,0.16-0.92c0-0.67-0.19-1.22-0.57-1.65
			c-0.38-0.43-0.86-0.64-1.44-0.64H281.52z M288.75,152.23c0-0.32-0.05-0.63-0.16-0.92c-0.11-0.29-0.26-0.55-0.44-0.76
			c-0.18-0.22-0.4-0.39-0.67-0.52s-0.55-0.2-0.85-0.2h-5.11v4.74h4.96c0.32,0,0.62-0.06,0.9-0.19c0.28-0.12,0.52-0.29,0.72-0.5
			c0.2-0.21,0.36-0.46,0.48-0.74S288.75,152.55,288.75,152.23z"/>
		<path class="st1" d="M293.82,156.68v-15.51h2.45v15.51H293.82z"/>
		<path class="st1" d="M299.76,156.68v-15.51h2.45v13.35h8.32v2.16H299.76z"/>
		<path class="st1" d="M312.52,156.68v-15.51h2.45v15.51H312.52z"/>
		<path class="st1" d="M318.46,156.68v-15.51h5.51c1.25,0,2.35,0.2,3.29,0.61c0.94,0.41,1.73,0.96,2.36,1.66
			c0.63,0.7,1.11,1.52,1.43,2.46c0.32,0.94,0.48,1.94,0.48,3c0,1.18-0.18,2.25-0.54,3.2c-0.36,0.95-0.86,1.77-1.52,2.45
			c-0.66,0.68-1.45,1.2-2.38,1.57c-0.93,0.37-1.97,0.56-3.12,0.56H318.46z M329.03,148.9c0-0.82-0.11-1.57-0.34-2.25
			c-0.23-0.68-0.56-1.27-0.99-1.76c-0.44-0.49-0.97-0.87-1.59-1.15c-0.63-0.28-1.34-0.42-2.14-0.42h-3.06v11.18h3.06
			c0.82,0,1.54-0.14,2.17-0.43c0.63-0.28,1.17-0.68,1.59-1.18c0.43-0.5,0.75-1.1,0.97-1.78
			C328.92,150.45,329.03,149.71,329.03,148.9z"/>
		<path class="st1" d="M338.12,141.17h2.14l6.12,15.51h-2.58l-1.64-4.22h-5.99l-1.62,4.22h-2.6L338.12,141.17z M341.68,150.65
			l-2.49-6.66l-2.58,6.66H341.68z"/>
		<path class="st1" d="M348.3,156.68v-15.51h5.51c1.25,0,2.35,0.2,3.29,0.61c0.94,0.41,1.73,0.96,2.36,1.66
			c0.63,0.7,1.11,1.52,1.43,2.46c0.32,0.94,0.48,1.94,0.48,3c0,1.18-0.18,2.25-0.54,3.2c-0.36,0.95-0.86,1.77-1.52,2.45
			c-0.66,0.68-1.45,1.2-2.38,1.57c-0.93,0.37-1.97,0.56-3.12,0.56H348.3z M358.87,148.9c0-0.82-0.11-1.57-0.34-2.25
			c-0.23-0.68-0.56-1.27-0.99-1.76c-0.44-0.49-0.97-0.87-1.59-1.15c-0.63-0.28-1.34-0.42-2.14-0.42h-3.06v11.18h3.06
			c0.82,0,1.54-0.14,2.17-0.43c0.63-0.28,1.17-0.68,1.59-1.18c0.43-0.5,0.75-1.1,0.97-1.78
			C358.76,150.45,358.87,149.71,358.87,148.9z"/>
		<path class="st1" d="M374.58,154.52v2.16h-10.64v-15.51h10.44v2.16h-8v4.41h6.93v2.03h-6.93v4.74H374.58z"/>
		<path class="st1" d="M382.53,159.52v-19.77h2.05v19.77H382.53z"/>
		<path class="st1" d="M393.5,156.68v-15.51h10.33v2.16h-7.89v4.63h6.6V150h-6.6v6.68H393.5z"/>
		<path class="st1" d="M406.15,156.68v-15.51h2.45v15.51H406.15z"/>
		<path class="st1" d="M421.26,144.82c-0.15-0.16-0.36-0.33-0.63-0.51c-0.28-0.18-0.6-0.35-0.97-0.51s-0.78-0.29-1.22-0.39
			c-0.44-0.1-0.9-0.15-1.36-0.15c-1.03,0-1.79,0.19-2.28,0.57c-0.49,0.38-0.73,0.9-0.73,1.57c0,0.38,0.08,0.69,0.23,0.93
			c0.15,0.24,0.39,0.45,0.71,0.63c0.32,0.18,0.72,0.34,1.2,0.48c0.48,0.14,1.04,0.29,1.68,0.45c0.79,0.19,1.5,0.4,2.13,0.63
			c0.63,0.23,1.17,0.52,1.61,0.85c0.44,0.33,0.78,0.75,1.02,1.23s0.36,1.08,0.36,1.78c0,0.79-0.15,1.46-0.45,2.03
			c-0.3,0.57-0.71,1.03-1.22,1.39c-0.52,0.36-1.12,0.62-1.8,0.79c-0.69,0.17-1.42,0.25-2.21,0.25c-1.18,0-2.32-0.18-3.42-0.54
			c-1.1-0.36-2.09-0.88-2.98-1.56l1.11-2.1c0.19,0.19,0.46,0.4,0.82,0.63c0.36,0.23,0.77,0.45,1.25,0.64
			c0.47,0.2,0.99,0.36,1.54,0.5c0.55,0.14,1.13,0.21,1.73,0.21c0.96,0,1.7-0.17,2.23-0.5c0.52-0.33,0.79-0.83,0.79-1.49
			c0-0.39-0.1-0.72-0.29-0.98c-0.2-0.26-0.48-0.49-0.84-0.69c-0.37-0.2-0.81-0.38-1.33-0.54c-0.52-0.16-1.12-0.33-1.79-0.5
			c-0.77-0.2-1.45-0.42-2.02-0.64c-0.58-0.23-1.05-0.5-1.43-0.82s-0.67-0.7-0.86-1.12c-0.2-0.43-0.29-0.95-0.29-1.56
			c0-0.76,0.15-1.43,0.44-2.02c0.29-0.59,0.69-1.08,1.19-1.49s1.1-0.7,1.78-0.91c0.68-0.2,1.43-0.31,2.23-0.31
			c1.05,0,2.02,0.17,2.9,0.5s1.67,0.75,2.34,1.25L421.26,144.82z"/>
		<path class="st1" d="M424.45,148.82c0-0.93,0.17-1.86,0.5-2.79s0.83-1.75,1.47-2.49c0.65-0.74,1.44-1.33,2.37-1.78
			c0.93-0.45,1.99-0.68,3.17-0.68c1.41,0,2.62,0.31,3.63,0.94s1.76,1.44,2.27,2.45l-1.92,1.29c-0.22-0.47-0.48-0.86-0.79-1.18
			s-0.64-0.58-1-0.76s-0.74-0.32-1.14-0.4s-0.77-0.12-1.14-0.12c-0.82,0-1.53,0.16-2.14,0.49c-0.61,0.33-1.13,0.76-1.54,1.3
			c-0.42,0.54-0.73,1.14-0.94,1.81c-0.21,0.67-0.32,1.34-0.32,2.01c0,0.76,0.12,1.48,0.37,2.16c0.25,0.68,0.59,1.29,1.04,1.81
			c0.44,0.52,0.97,0.94,1.58,1.26c0.61,0.31,1.28,0.47,2.01,0.47c0.38,0,0.77-0.05,1.17-0.14c0.4-0.09,0.79-0.25,1.16-0.46
			c0.37-0.21,0.71-0.48,1.03-0.8c0.31-0.32,0.57-0.71,0.78-1.16l2.03,1.16c-0.25,0.58-0.6,1.1-1.05,1.54
			c-0.45,0.44-0.96,0.82-1.53,1.12c-0.57,0.31-1.17,0.54-1.8,0.7s-1.26,0.24-1.87,0.24c-1.09,0-2.09-0.23-2.99-0.7
			c-0.9-0.47-1.68-1.07-2.34-1.82c-0.66-0.75-1.17-1.6-1.53-2.56C424.64,150.78,424.45,149.81,424.45,148.82z"/>
		<path class="st1" d="M444.73,141.17h2.14l6.12,15.51h-2.58l-1.64-4.22h-5.99l-1.62,4.22h-2.6L444.73,141.17z M448.29,150.65
			l-2.49-6.66l-2.58,6.66H448.29z"/>
		<path class="st1" d="M454.91,156.68v-15.51h2.45v13.35h8.32v2.16H454.91z"/>
		<path class="st1" d="M467.67,156.68v-15.51h2.45v15.51H467.67z"/>
		<path class="st1" d="M473.61,156.68v-15.51h5.5c1.25,0,2.35,0.2,3.29,0.61c0.94,0.41,1.73,0.96,2.36,1.66
			c0.63,0.7,1.11,1.52,1.43,2.46s0.48,1.94,0.48,3c0,1.18-0.18,2.25-0.54,3.2c-0.36,0.95-0.86,1.77-1.52,2.45
			c-0.66,0.68-1.45,1.2-2.38,1.57c-0.93,0.37-1.97,0.56-3.12,0.56H473.61z M484.18,148.9c0-0.82-0.11-1.57-0.34-2.25
			s-0.56-1.27-0.99-1.76c-0.44-0.49-0.97-0.87-1.59-1.15s-1.34-0.42-2.14-0.42h-3.06v11.18h3.06c0.82,0,1.54-0.14,2.17-0.43
			c0.63-0.28,1.17-0.68,1.59-1.18c0.43-0.5,0.75-1.1,0.97-1.78S484.18,149.71,484.18,148.9z"/>
		<path class="st1" d="M493.27,141.17h2.14l6.12,15.51h-2.58l-1.64-4.22h-5.99l-1.62,4.22h-2.6L493.27,141.17z M496.83,150.65
			l-2.49-6.66l-2.58,6.66H496.83z"/>
		<path class="st1" d="M503.45,156.68v-15.51h5.5c1.25,0,2.35,0.2,3.29,0.61c0.94,0.41,1.73,0.96,2.36,1.66
			c0.63,0.7,1.11,1.52,1.43,2.46s0.48,1.94,0.48,3c0,1.18-0.18,2.25-0.54,3.2c-0.36,0.95-0.86,1.77-1.52,2.45
			c-0.66,0.68-1.45,1.2-2.38,1.57c-0.93,0.37-1.97,0.56-3.12,0.56H503.45z M514.02,148.9c0-0.82-0.11-1.57-0.34-2.25
			s-0.56-1.27-0.99-1.76c-0.44-0.49-0.97-0.87-1.59-1.15s-1.34-0.42-2.14-0.42h-3.06v11.18h3.06c0.82,0,1.54-0.14,2.17-0.43
			c0.63-0.28,1.17-0.68,1.59-1.18c0.43-0.5,0.75-1.1,0.97-1.78S514.02,149.71,514.02,148.9z"/>
		<path class="st1" d="M529.73,154.52v2.16h-10.64v-15.51h10.44v2.16h-8v4.41h6.92v2.03h-6.92v4.74H529.73z"/>
		<path class="st1" d="M537.68,159.52v-19.77h2.05v19.77H537.68z"/>
		<path class="st1" d="M548.65,156.68v-15.51h10.33v2.16h-7.89v4.63h6.6V150h-6.6v6.68H548.65z"/>
		<path class="st1" d="M561.29,156.68v-15.51h2.45v15.51H561.29z"/>
		<path class="st1" d="M569.68,145.76v10.92h-2.45v-15.51h1.92l8.87,11.19v-11.16h2.47v15.49h-2.03L569.68,145.76z"/>
		<path class="st1" d="M588.56,141.17h2.14l6.12,15.51h-2.58l-1.64-4.22h-5.99l-1.62,4.22h-2.6L588.56,141.17z M592.12,150.65
			l-2.49-6.66l-2.58,6.66H592.12z"/>
		<path class="st1" d="M601.18,145.76v10.92h-2.45v-15.51h1.92l8.87,11.19v-11.16H612v15.49h-2.03L601.18,145.76z"/>
		<path class="st1" d="M620.06,159.44c0.17,0.1,0.44,0.2,0.81,0.29c0.36,0.09,0.74,0.14,1.11,0.14c0.38,0,0.68-0.06,0.91-0.17
			c0.23-0.12,0.34-0.31,0.34-0.57c0-0.29-0.11-0.49-0.32-0.59c-0.21-0.1-0.48-0.15-0.82-0.15c-0.31,0-0.63,0.03-0.96,0.09
			c-0.33,0.06-0.6,0.12-0.79,0.17l0.98-1.86c-1.02-0.07-1.95-0.35-2.79-0.84c-0.84-0.49-1.56-1.1-2.16-1.85
			c-0.6-0.74-1.07-1.57-1.41-2.49c-0.34-0.92-0.5-1.85-0.5-2.8c0-0.93,0.17-1.86,0.5-2.79c0.33-0.92,0.83-1.75,1.47-2.49
			c0.65-0.74,1.44-1.33,2.37-1.78c0.93-0.45,1.99-0.68,3.17-0.68c1.41,0,2.62,0.31,3.63,0.94s1.76,1.44,2.27,2.45l-1.92,1.29
			c-0.22-0.47-0.48-0.86-0.79-1.18c-0.31-0.32-0.64-0.58-1-0.76c-0.36-0.19-0.74-0.32-1.14-0.4c-0.39-0.08-0.77-0.12-1.14-0.12
			c-0.82,0-1.53,0.16-2.14,0.49c-0.61,0.33-1.12,0.76-1.54,1.3c-0.42,0.54-0.73,1.14-0.94,1.81c-0.21,0.67-0.32,1.34-0.32,2.01
			c0,0.76,0.12,1.48,0.37,2.16c0.25,0.68,0.59,1.29,1.04,1.81c0.44,0.52,0.97,0.94,1.58,1.26s1.28,0.47,2.01,0.47
			c0.38,0,0.77-0.05,1.17-0.14c0.4-0.09,0.79-0.25,1.16-0.46c0.37-0.21,0.71-0.48,1.03-0.8c0.31-0.32,0.57-0.71,0.78-1.16l2.03,1.16
			c-0.22,0.54-0.53,1.02-0.94,1.44c-0.41,0.42-0.87,0.79-1.38,1.09s-1.06,0.55-1.64,0.72c-0.58,0.17-1.16,0.28-1.73,0.33l-0.57,0.87
			c0.12-0.03,0.24-0.05,0.37-0.07c0.13-0.01,0.25-0.02,0.37-0.02c0.51,0,0.94,0.12,1.28,0.35c0.34,0.23,0.51,0.6,0.51,1.11
			c0,0.52-0.22,0.95-0.64,1.28c-0.43,0.33-1.08,0.49-1.96,0.49c-0.47,0-0.88-0.04-1.26-0.13c-0.37-0.09-0.7-0.19-0.99-0.31
			L620.06,159.44z"/>
		<path class="st1" d="M634.74,141.17h2.14l6.12,15.51h-2.58l-1.64-4.22h-5.99l-1.62,4.22h-2.6L634.74,141.17z M638.3,150.65
			l-2.49-6.66l-2.58,6.66H638.3z"/>
		<path class="st1" d="M653.85,144.82c-0.15-0.16-0.36-0.33-0.63-0.51c-0.28-0.18-0.6-0.35-0.97-0.51s-0.78-0.29-1.22-0.39
			s-0.9-0.15-1.37-0.15c-1.03,0-1.79,0.19-2.28,0.57s-0.73,0.9-0.73,1.57c0,0.38,0.08,0.69,0.23,0.93c0.15,0.24,0.39,0.45,0.71,0.63
			c0.32,0.18,0.72,0.34,1.2,0.48c0.48,0.14,1.04,0.29,1.68,0.45c0.79,0.19,1.5,0.4,2.13,0.63c0.63,0.23,1.17,0.52,1.61,0.85
			s0.78,0.75,1.02,1.23s0.36,1.08,0.36,1.78c0,0.79-0.15,1.46-0.45,2.03c-0.3,0.57-0.71,1.03-1.22,1.39
			c-0.52,0.36-1.12,0.62-1.8,0.79c-0.68,0.17-1.42,0.25-2.21,0.25c-1.18,0-2.32-0.18-3.42-0.54c-1.1-0.36-2.09-0.88-2.98-1.56
			l1.11-2.1c0.19,0.19,0.46,0.4,0.82,0.63c0.36,0.23,0.77,0.45,1.25,0.64c0.47,0.2,0.99,0.36,1.54,0.5
			c0.55,0.14,1.13,0.21,1.73,0.21c0.96,0,1.7-0.17,2.23-0.5c0.52-0.33,0.79-0.83,0.79-1.49c0-0.39-0.1-0.72-0.29-0.98
			c-0.2-0.26-0.48-0.49-0.84-0.69c-0.36-0.2-0.81-0.38-1.33-0.54s-1.12-0.33-1.79-0.5c-0.77-0.2-1.45-0.42-2.02-0.64
			s-1.05-0.5-1.43-0.82s-0.67-0.7-0.86-1.12c-0.2-0.43-0.29-0.95-0.29-1.56c0-0.76,0.15-1.43,0.44-2.02s0.69-1.08,1.19-1.49
			c0.5-0.4,1.1-0.7,1.78-0.91s1.43-0.31,2.23-0.31c1.05,0,2.02,0.17,2.91,0.5s1.67,0.75,2.34,1.25L653.85,144.82z"/>
	</g>
</g>
<g>
	<path class="st2" d="M159.93,173.31H41.3c-10.26,0-18.58-8.32-18.58-18.58V28.44c0-10.26,8.32-18.58,18.58-18.58h118.62
		c10.26,0,18.58,8.32,18.58,18.58v126.3C178.5,165,170.19,173.31,159.93,173.31z"/>
	<g>
		<path class="st1" d="M144.25,50.53L144.25,50.53H70.28c-6.67,0-12.08,5.41-12.08,12.08v0c0,6.67,5.41,12.08,12.08,12.08h61.89
			v30.65H70.28c-6.67,0-12.08,5.41-12.08,12.08v0c0,6.67,5.41,12.08,12.08,12.08h61.89v31.75H70.28c-6.67,0-12.08,5.41-12.08,12.08
			v0c0,6.67,5.41,12.08,12.08,12.08h73.97h0c6.67,0,12.08-5.41,12.08-12.08v0v-55.9v0v-54.8v0
			C156.32,55.94,150.92,50.53,144.25,50.53z"/>
		<path class="st0" d="M24.32,22.51L24.32,22.51h74.38c6.71,0,12.14,5.44,12.14,12.14v0c0,6.71-5.44,12.14-12.14,12.14H36.46v30.82
			h62.24c6.71,0,12.14,5.44,12.14,12.14v0c0,6.71-5.44,12.14-12.14,12.14H36.46v31.93h62.24c6.71,0,12.14,5.44,12.14,12.14v0
			c0,6.71-5.44,12.14-12.14,12.14H24.32h0c-6.71,0-12.14-5.44-12.14-12.14v0V89.76v0V34.65v0C12.17,27.94,17.61,22.51,24.32,22.51z"
			/>
	</g>
</g>
<g>
</g>
<g>
</g>
<g>
</g>
<g>
</g>
<g>
</g>
<g>
</g>
</svg>
