<?xml version="1.0" encoding="UTF-8"?>
<svg xmlns="http://www.w3.org/2000/svg" xmlns:xlink="http://www.w3.org/1999/xlink" id="Layer_2" data-name="Layer 2" viewBox="0 0 350 63.47">
  <defs>
    <style>
      .cls-1 {
        fill: url(#linear-gradient-2);
      }

      .cls-2 {
        fill: #0069b5;
      }

      .cls-3 {
        fill: none;
      }

      .cls-4 {
        clip-path: url(#clippath-1);
      }

      .cls-5 {
        fill: url(#linear-gradient);
      }

      .cls-6 {
        clip-path: url(#clippath);
      }

      .cls-7 {
        fill: #414042;
      }
    </style>
    <clipPath id="clippath">
      <path class="cls-3" d="M47.71,17.4c1.53-.45,3.15-.71,4.83-.71,7.18,0,13.31,4.43,15.85,10.7h9.81c-1.25-5.01-3.92-9.46-7.56-12.89-.05-.02-.09-.03-.14-.04-2.75-1.38-5.64-1.94-8.43-1.94-5.81,0-11.23,2.41-14.36,4.87"></path>
    </clipPath>
    <linearGradient id="linear-gradient" x1="-636.72" y1="597.97" x2="-634.15" y2="597.97" gradientTransform="translate(3093.19 -3193.06) rotate(-90) scale(5.07 -5.07)" gradientUnits="userSpaceOnUse">
      <stop offset="0" stop-color="#00bef3"></stop>
      <stop offset=".27" stop-color="#009bcd"></stop>
      <stop offset=".88" stop-color="#00436e"></stop>
      <stop offset="1" stop-color="#00315b"></stop>
    </linearGradient>
    <clipPath id="clippath-1">
      <path class="cls-3" d="M24.25,42.14c0,3.5-2.92,6.5-6.65,6.5-3.22,0-5.77-.8-8.25-3.94L0,51.56c4.39,4.82,9.52,7.17,14.75,7.78,11.52-5.72,10.5-14.2,9.45-17.75.01.18.05.36.05.55"></path>
    </clipPath>
    <linearGradient id="linear-gradient-2" x1="-531.7" y1="801.27" x2="-529.13" y2="801.27" gradientTransform="translate(5134.44 7788.06) scale(9.66 -9.66)" xlink:href="#linear-gradient"></linearGradient>
  </defs>
  <g id="Layer_1-2" data-name="Layer 1">
    <g>
      <g>
        <path class="cls-2" d="M68.39,27.4h9.81c-2.87-11.52-13.25-20.07-25.65-20.07s-22.07,7.95-25.35,18.85c-2.42-1.28-5.2-2.04-8.13-2.22-5.77-.37-7.59-2.63-7.59-5.11,0-2.99,2.04-4.82,5.04-4.82,1.9,0,4.31,1.17,5.77,2.7l.26-.2c1.76-3.15,3.99-5.99,6.6-8.44-3.74-3.42-8.08-4.88-12.63-4.88C8.98,3.21.51,9.71.51,18.91c0,8.54,6.13,14.46,15.56,15.56,5.26.59,8.18,3.29,8.18,7.67,0,3.51-2.92,6.5-6.64,6.5-3.21,0-5.77-.8-8.25-3.94L0,51.56c5.19,5.7,11.39,7.96,17.6,7.96,1.84,0,3.66-.29,5.39-.82v.08c.06-.02.12-.04.19-.06,9.55-2.86,14.89-9.43,17.16-12.96-3.03-3.08-4.9-7.31-4.9-11.97,0-9.44,7.65-17.09,17.1-17.09,7.18,0,13.31,4.43,15.85,10.7M40.01,57.1c3.73,2.01,7.99,3.16,12.53,3.16,12.4,0,22.79-8.55,25.65-20.07h-9.81c-2.53,6.27-8.67,10.7-15.85,10.7-1.27,0-2.51-.14-3.71-.41-.02.02-.03.05-.04.07-1.85,2.94-5.13,5.06-8.78,6.55"></path>
        <g class="cls-6">
          <rect class="cls-5" x="50.63" y="3.08" width="24.64" height="33.77" transform="translate(22.12 71.86) rotate(-69.4)"></rect>
        </g>
        <g class="cls-4">
          <rect class="cls-1" x="0" y="41.58" width="26.27" height="17.75"></rect>
        </g>
      </g>
      <g>
        <path class="cls-7" d="M88.87,0c-.77,6.58-2.45,41.11.31,63.47,0,0,2.9-27.96-.31-63.47"></path>
        <path class="cls-7" d="M172.7,43.33c0,1.57.29,2.93.86,4.1.58,1.17,1.38,2.14,2.42,2.92,1.04.78,2.28,1.37,3.71,1.77,1.44.4,3.02.6,4.74.6,2.4,0,4.59-.5,6.59-1.48,2-.99,3.68-2.76,5.05-5.32l-4.31-1.96c-.83,1.44-1.88,2.45-3.14,3.04-1.26.59-2.66.89-4.19.89-.8,0-1.61-.07-2.42-.22s-1.55-.39-2.2-.74c-.65-.35-1.19-.82-1.61-1.39-.42-.58-.62-1.31-.62-2.21v-16.71c0-1.54.63-2.68,1.89-3.43,1.26-.75,2.91-1.13,4.96-1.13,1.53,0,2.96.3,4.27.89s2.28,1.65,2.92,3.19l4.46-2.21c-.61-1.28-1.33-2.34-2.18-3.19-.84-.86-1.77-1.54-2.78-2.06-1.01-.52-2.08-.89-3.21-1.11-1.14-.22-2.29-.33-3.47-.33-1.6,0-3.11.18-4.53.55-1.42.37-2.67.93-3.74,1.7-1.07.77-1.92,1.74-2.54,2.92-.62,1.18-.93,2.6-.93,4.27v16.68ZM204.33,24.91c-1.89.88-3.38,2.24-4.5,4.1l4.22,2.49c1.4-2.04,3.71-3.07,6.9-3.07,1.02,0,1.98.11,2.87.31.9.21,1.68.51,2.35.89s1.2.87,1.58,1.45c.38.58.57,1.26.57,2.03v2.7h-10.45c-1.41,0-2.68.18-3.83.55-1.15.37-2.13.88-2.95,1.55-.81.67-1.45,1.48-1.92,2.44-.46.96-.7,2.04-.7,3.25,0,1.59.32,2.96.96,4.11.64,1.15,1.52,2.1,2.64,2.84,1.12.75,2.43,1.3,3.94,1.65,1.5.35,3.12.53,4.85.53,1.82,0,3.5-.19,5.02-.58,1.52-.38,2.82-.98,3.91-1.8,1.09-.81,1.93-1.84,2.52-3.07.59-1.23.89-2.71.89-4.43v-9.77c0-1.63-.33-3.04-.99-4.22-.66-1.18-1.55-2.16-2.66-2.95-1.11-.78-2.41-1.37-3.9-1.75-1.49-.39-3.06-.58-4.72-.58-2.52,0-4.73.44-6.61,1.32M218.13,44.22c-.13.56-.44,1.11-.93,1.65-.49.54-1.23,1.01-2.22,1.41-.99.4-2.36.6-4.11.6-1.02,0-1.98-.08-2.89-.24-.91-.16-1.71-.41-2.39-.77-.69-.35-1.23-.8-1.63-1.34-.4-.54-.6-1.2-.6-1.96,0-.22.06-.5.19-.84.13-.34.37-.65.72-.96.35-.31.81-.57,1.38-.79.57-.22,1.32-.34,2.24-.34h10.41v2.2c0,.35-.06.81-.19,1.37M232.84,43.14v-9.87c0-.77.2-1.45.6-2.06.4-.61.93-1.12,1.61-1.53.67-.41,1.45-.72,2.35-.93.89-.21,1.85-.31,2.88-.31s2.04.11,2.95.34c.91.22,1.7.55,2.37.98.67.43,1.2.95,1.58,1.56.39.61.58,1.29.58,2.06v9.77c0,.83-.21,1.55-.62,2.16-.42.61-.97,1.1-1.65,1.48-.69.39-1.48.67-2.37.86-.89.19-1.84.29-2.83.29s-1.99-.1-2.9-.31c-.91-.21-1.7-.52-2.37-.93s-1.2-.92-1.58-1.51c-.38-.59-.57-1.27-.57-2.04M232.84,60.82v-9.87c.64.45,1.51.86,2.61,1.25,1.1.38,2.71.57,4.82.57,1.69,0,3.29-.18,4.79-.55,1.5-.37,2.81-.94,3.93-1.73,1.12-.78,2.01-1.78,2.66-2.99.65-1.21.98-2.67.98-4.36v-9.77c0-1.56-.31-2.96-.93-4.19-.62-1.23-1.49-2.25-2.59-3.07-1.1-.81-2.41-1.44-3.93-1.87-1.52-.43-3.15-.65-4.91-.65s-3.49.22-5.01.65c-1.52.43-2.81,1.06-3.88,1.89-1.07.83-1.91,1.84-2.52,3.04-.61,1.2-.91,2.57-.91,4.1v27.55h4.89ZM262.36,24.12h-4.89v28.23h4.89v-28.23ZM257.42,21.39h4.94v-3.79h-4.94v3.79ZM275.8,46.3c-1.26-.8-1.89-1.92-1.89-3.35v-14.66h7.62v-4.07h-7.62v-4.22h-4.89v4.22h-3.79v4.07h3.79v14.66c0,1.5.28,2.84.84,4,.56,1.17,1.36,2.15,2.39,2.95,1.04.8,2.29,1.41,3.74,1.82,1.45.42,3.07.62,4.86.62h5.03v-4.84h-5.03c-2.11,0-3.79-.4-5.06-1.2M292.45,24.91c-1.89.88-3.39,2.24-4.5,4.1l4.22,2.49c1.4-2.04,3.71-3.07,6.9-3.07,1.02,0,1.98.11,2.88.31.89.21,1.68.51,2.35.89.67.39,1.2.87,1.58,1.45.38.58.58,1.26.58,2.03v2.7h-10.45c-1.4,0-2.68.18-3.83.55-1.15.37-2.13.88-2.95,1.55-.81.67-1.45,1.48-1.92,2.44-.46.96-.69,2.04-.69,3.25,0,1.59.32,2.96.96,4.11.64,1.15,1.52,2.1,2.64,2.84,1.12.75,2.43,1.3,3.94,1.65,1.5.35,3.12.53,4.85.53,1.83,0,3.5-.19,5.02-.58s2.83-.98,3.91-1.8c1.09-.81,1.93-1.84,2.52-3.07.59-1.23.89-2.71.89-4.43v-9.77c0-1.63-.33-3.04-.99-4.22-.66-1.18-1.55-2.16-2.66-2.95-1.11-.78-2.41-1.37-3.9-1.75-1.48-.39-3.06-.58-4.72-.58-2.52,0-4.73.44-6.61,1.32M306.25,44.22c-.13.56-.44,1.11-.93,1.65-.5.54-1.24,1.01-2.22,1.41-.99.4-2.36.6-4.11.6-1.02,0-1.98-.08-2.89-.24-.91-.16-1.7-.41-2.39-.77-.68-.35-1.23-.8-1.62-1.34-.4-.54-.6-1.2-.6-1.96,0-.22.06-.5.19-.84.13-.34.36-.65.72-.96.35-.31.81-.57,1.38-.79.58-.22,1.32-.34,2.25-.34h10.41v2.2c0,.35-.06.81-.19,1.37M321.01,24.12h-4.89v28.23h4.89v-28.23ZM316.07,21.39h4.94v-3.79h-4.94v3.79ZM334.87,35.4c-.9-.11-1.69-.29-2.38-.53-.69-.24-1.24-.58-1.66-1.01-.42-.43-.62-.98-.62-1.65s.21-1.29.62-1.77c.41-.48.97-.87,1.67-1.17.7-.3,1.5-.52,2.4-.65.89-.13,1.82-.19,2.78-.19,1.73,0,3.16.25,4.29.74,1.14.5,2.05,1.42,2.76,2.76l4.31-2.54c-1.28-2.14-2.81-3.64-4.6-4.5-1.79-.86-4.04-1.29-6.76-1.29-1.72,0-3.34.15-4.84.45-1.5.3-2.8.8-3.91,1.49-1.1.69-1.96,1.58-2.59,2.68-.62,1.1-.93,2.44-.93,4s.32,2.83.96,3.88c.64,1.05,1.52,1.91,2.64,2.56,1.12.65,2.42,1.12,3.91,1.39,1.48.27,3.07.41,4.77.41.99,0,1.94.06,2.85.17.91.11,1.7.31,2.37.6.67.29,1.21.66,1.61,1.12.4.46.6,1.05.6,1.75s-.2,1.26-.6,1.75c-.4.49-.93.9-1.61,1.22-.67.32-1.46.56-2.37.72-.91.16-1.86.24-2.85.24-1.25,0-2.32-.11-3.23-.33-.91-.22-1.69-.52-2.35-.89-.65-.37-1.19-.78-1.61-1.25-.42-.46-.75-.93-1.01-1.41l-4.17,2.44c2.3,4.18,6.43,6.28,12.39,6.28,1.7,0,3.29-.17,4.78-.5,1.49-.34,2.79-.86,3.91-1.56,1.12-.7,2-1.61,2.64-2.73.64-1.12.96-2.44.96-3.98s-.31-2.89-.91-3.98c-.61-1.09-1.46-1.96-2.57-2.64-1.1-.67-2.41-1.16-3.91-1.46-1.5-.31-3.14-.46-4.9-.46-.99,0-1.94-.05-2.84-.17"></path>
        <path class="cls-7" d="M116.17,46.66c-1.28.82-2.97,1.22-5.08,1.22-1.82,0-3.4-.37-4.74-1.13-1.34-.75-2.37-1.91-3.07-3.47l-4.22,2.3c.61,1.37,1.37,2.52,2.28,3.43.91.91,1.89,1.65,2.95,2.21,1.06.56,2.17.95,3.33,1.17,1.17.22,2.32.34,3.47.34,1.79,0,3.42-.22,4.89-.65,1.47-.43,2.72-1.07,3.76-1.92,1.04-.84,1.84-1.9,2.4-3.16.56-1.26.84-2.72.84-4.38,0-1.28-.17-2.51-.5-3.69-.33-1.18-.95-2.24-1.84-3.19-.89-.94-2.1-1.73-3.61-2.37-1.52-.64-3.43-1.07-5.76-1.29-.96-.1-1.85-.26-2.68-.48-.83-.22-1.56-.54-2.2-.94s-1.14-.91-1.5-1.52c-.37-.61-.55-1.33-.55-2.17,0-1.77.6-3.03,1.79-3.78,1.19-.76,2.86-1.13,4.99-1.13,1.66,0,3.11.36,4.35,1.08s2.17,1.89,2.77,3.52l4.41-2.01c-.54-1.47-1.24-2.68-2.08-3.63-.85-.95-1.78-1.71-2.8-2.28-1.02-.57-2.11-.96-3.26-1.19-1.15-.22-2.28-.33-3.4-.33-3.55,0-6.37.8-8.48,2.4-2.11,1.6-3.16,4.06-3.16,7.38,0,1.57.28,2.93.84,4.1.56,1.17,1.34,2.16,2.35,2.97,1,.81,2.21,1.45,3.62,1.92,1.4.46,2.96.78,4.65.93,2.49.26,4.31.82,5.46,1.68,1.15.86,1.73,2.21,1.73,4.03s-.64,3.23-1.92,4.05M131.93,24.91c-1.89.88-3.39,2.24-4.5,4.1l4.22,2.49c1.4-2.04,3.71-3.07,6.9-3.07,1.02,0,1.98.11,2.87.31.89.21,1.68.51,2.35.89.67.39,1.2.87,1.58,1.45.38.58.58,1.25.58,2.03v2.7h-10.45c-1.41,0-2.68.18-3.83.55-1.15.37-2.13.89-2.95,1.55-.81.67-1.45,1.48-1.92,2.44-.46.96-.7,2.04-.7,3.25,0,1.59.32,2.96.96,4.11.64,1.15,1.52,2.09,2.64,2.84,1.12.75,2.43,1.3,3.93,1.65,1.5.35,3.12.53,4.85.53,1.82,0,3.5-.19,5.02-.58,1.52-.38,2.83-.98,3.91-1.8,1.09-.81,1.93-1.84,2.52-3.07.59-1.23.89-2.71.89-4.43v-9.77c0-1.63-.33-3.04-.99-4.22-.66-1.18-1.55-2.17-2.66-2.95-1.11-.78-2.41-1.36-3.9-1.75-1.48-.38-3.06-.58-4.72-.58-2.52,0-4.73.44-6.61,1.32M145.74,44.22c-.13.56-.44,1.11-.93,1.65-.49.54-1.24,1.01-2.22,1.42-.99.4-2.36.6-4.11.6-1.02,0-1.98-.08-2.89-.24-.91-.16-1.7-.42-2.39-.77-.68-.35-1.23-.8-1.62-1.34-.4-.54-.6-1.2-.6-1.96,0-.22.06-.5.19-.84.13-.33.36-.65.72-.96.35-.3.81-.57,1.38-.79.58-.22,1.32-.33,2.25-.33h10.41v2.2c0,.35-.06.81-.19,1.37M155.56,52.34h4.89V17.55h-4.89v34.79Z"></path>
      </g>
    </g>
  </g>
</svg>
