<svg id="Layer_1" data-name="Layer 1" xmlns="http://www.w3.org/2000/svg" viewBox="0 0 2000 2000"><defs><style>.cls-1{fill:#2e317e;}</style></defs><path class="cls-1" d="M469.16,354.31h8q205.86,0,411.73.09c25.24,0,42.49,20.34,38.19,45.71C918.35,451.43,909.15,502.66,900.3,554Q880.05,671.28,860,788.65c-12,69.34-24.16,138.63-36.11,208-12.77,74-25.3,148.09-38.08,222.11-8.65,50.13-17.59,100.21-26.32,150.33q-11.25,64.64-22.33,129.3c-3.72,21.55-7.88,43-11.15,64.64-4.49,29.63,3,54.65,28.42,72.34,2.16,1.5,2.78,5.29,4.11,8-2.47,1.2-4.94,3.43-7.42,3.44-53,.2-106,1-159-.17-34.35-.76-64.92-14-91.44-36.59-30.73-26.22-48.39-59.79-54.86-99.82-3.32-20.5-.82-40.66,2.68-60.89,13.89-80.34,27.5-160.73,41.31-241.09q14.12-82.23,28.47-164.42,16.32-94.53,32.58-189.06c7.85-45.43,15.94-90.82,23.66-136.28,11-64.67,22.06-129.32,32.31-194.11,3.44-21.78-1.26-43.15-8.94-63.63-17.58-46.93-49.65-79.26-95.76-96.75-10.6-4-21.9-6.1-32.88-9.07Z"/><path class="cls-1" d="M956.21,353.06h6.9c74.91,0,149.82-.83,224.71.21,88.67,1.24,168,30,236,88.83a375.52,375.52,0,0,1,88.87,112.7c23.56,45.69,37.82,93.93,41.83,145.39,5.49,70.51-7.76,137.2-38.68,200.37-23.38,47.75-55.46,88.54-96.28,121.8-41.66,33.93-88,58.73-140.17,71.74-25.93,6.46-51.91,11.39-78.68,11.6-42.67.32-85.34,1.2-128,1.12-20.7,0-41.42-1.33-62.08-2.8-14.59-1-25.8-9.49-34.59-20.66-12.5-15.87-14.78-34.13-11-53.93,5.69-29.81,10.61-59.78,15.75-89.7,6-34.83,11.82-69.69,17.78-104.52.76-4.44,1.87-8.82,2.87-13.21,1.2-5.28,5.14-6.27,9.64-6.28q20.31,0,40.61,0c25.9,0,51.82-.69,77.69.21,23,.79,42.1-8.37,58.86-22.37,40.69-34,43.63-97.41,7-135.95-19.09-20.11-42.86-28.68-70-28.66q-90.66.09-181.31,0c-10.67,0-10.86-.36-9-10.84q20.07-115.19,40-230.38c2.75-15.86-2.31-25.19-16.87-31.78a18.3,18.3,0,0,1-2.23-1.43C956,354,956.09,353.54,956.21,353.06Z"/></svg>