<svg id="Component_9_1" data-name="Component 9 – 1" xmlns="http://www.w3.org/2000/svg" width="118" height="118" viewBox="0 0 118 118">
  <g id="Group_9" data-name="Group 9" transform="translate(-0.458 -68.458)">
    <g id="Group_8" data-name="Group 8" transform="translate(37.12 105.12)">
      <path id="Path_14" data-name="Path 14" d="M79.612,105.145l-5.639.915a23.1,23.1,0,0,0-14.152,7.288L53.5,120.271l-8.609-.5a1.3,1.3,0,0,0-1.158.576L39.4,126.813a1.3,1.3,0,0,0,.543,1.91l6.11,2.778,9.347,9.347,2.78,6.117a1.3,1.3,0,0,0,1.906.546l6.566-4.357a1.3,1.3,0,0,0,.58-1.173l-.575-8.605,6.895-6.293a23.1,23.1,0,0,0,7.288-14.152l.915-5.639A1.869,1.869,0,0,0,79.612,105.145ZM69.225,123.207a3.909,3.909,0,1,1,0-5.528A3.911,3.911,0,0,1,69.225,123.207Z" transform="translate(-36.496 -105.12)" fill="#3189bd"/>
      <path id="Path_15" data-name="Path 15" d="M52.727,135.149l-7.213-7.213a.513.513,0,0,0-.722-.008c-.391.378-.93.909-1.123,1.1a23.155,23.155,0,0,0-6.55,14.513,23.155,23.155,0,0,0,14.513-6.55c.193-.193.724-.732,1.1-1.123A.513.513,0,0,0,52.727,135.149Z" transform="translate(-37.12 -98.255)" fill="#3189bd"/>
    </g>
  </g>
  <g id="Ellipse_1" data-name="Ellipse 1" fill="none" stroke="#e5e5e5" stroke-width="3">
    <circle cx="59" cy="59" r="59" stroke="none"/>
    <circle cx="59" cy="59" r="57.5" fill="none"/>
  </g>
</svg>
