<svg id="Component_11_1" data-name="Component 11 – 1" xmlns="http://www.w3.org/2000/svg" width="118" height="118" viewBox="0 0 118 118">
  <g id="Group_11" data-name="Group 11" transform="translate(-1.668 -345)">
    <g id="Group_10" data-name="Group 10" transform="translate(41.668 375)">
      <path id="Path_16" data-name="Path 16" d="M64.675,407.122H50.47a2.4,2.4,0,0,0-2.4,2.4v.346a2.4,2.4,0,0,0,2.4,2.4h2.356v.582a4.433,4.433,0,0,0,4.433,4.433H57.9a4.433,4.433,0,0,0,4.433-4.433v-.582h2.345a2.4,2.4,0,0,0,2.4-2.4v-.346A2.4,2.4,0,0,0,64.675,407.122Z" transform="translate(-38.609 -359.652)" fill="#3189bd"/>
      <path id="Path_17" data-name="Path 17" d="M58.423,375.125c-7.991.9-15.677,8.549-16.62,16.535a18.9,18.9,0,0,0,5.209,15.479,12.132,12.132,0,0,1,3.406,8.452h0a2.918,2.918,0,0,0,2.919,2.919H67.924a2.917,2.917,0,0,0,2.917-2.919,11.962,11.962,0,0,1,3.341-8.385,18.952,18.952,0,0,0-15.759-32.082Zm.361,36.081a1.847,1.847,0,1,1-3.695,0v-7.993a4.563,4.563,0,0,0-4.556-4.558,1.847,1.847,0,1,1,0-3.695,8.261,8.261,0,0,1,8.251,8.252Zm11.945-12.551a4.563,4.563,0,0,0-4.556,4.558v7.993a1.847,1.847,0,1,1-3.695,0v-7.993a8.261,8.261,0,0,1,8.251-8.252,1.847,1.847,0,1,1,0,3.695Z" transform="translate(-41.668 -375)" fill="#3189bd"/>
    </g>
  </g>
  <g id="Ellipse_3" data-name="Ellipse 3" fill="none" stroke="#e5e5e5" stroke-width="3">
    <circle cx="59" cy="59" r="59" stroke="none"/>
    <circle cx="59" cy="59" r="57.5" fill="none"/>
  </g>
</svg>
