<svg id="Component_10_1" data-name="Component 10 – 1" xmlns="http://www.w3.org/2000/svg" width="118" height="118" viewBox="0 0 118 118">
  <g id="Group_7" data-name="Group 7" transform="translate(-1.092 -203.75)">
    <g id="Group_6" data-name="Group 6" transform="translate(33.496 240.75)">
      <path id="Path_12" data-name="Path 12" d="M71.76,240.75H43.9a1.9,1.9,0,0,0,0,3.8h.633v40.518a.633.633,0,0,0,.633.633H70.494a.633.633,0,0,0,.633-.633V244.549h.633a1.9,1.9,0,0,0,0-3.8ZM61.239,282.535a.633.633,0,0,1-.633.633H55.057a.633.633,0,0,1-.633-.633v-9.813a.633.633,0,0,1,.633-.633h5.549a.633.633,0,0,1,.633.633Zm6.211-17.41a.633.633,0,0,1-.633.633H48.847a.633.633,0,0,1-.633-.633V260.06a.633.633,0,0,1,.633-.633h17.97a.633.633,0,0,1,.633.633Zm0-11.4a.633.633,0,0,1-.633.633H48.847a.633.633,0,0,1-.633-.633v-5.065a.633.633,0,0,1,.633-.633h17.97a.633.633,0,0,1,.633.633Z" transform="translate(-31.231 -240.75)" fill="#3189bd"/>
      <path id="Path_13" data-name="Path 13" d="M33.5,248.649a1.9,1.9,0,0,0,1.9,1.9h8.23v-3.8H35.4A1.9,1.9,0,0,0,33.5,248.649Zm9.5,5.065H35.4a.633.633,0,0,0-.633.633V283.47a.633.633,0,0,0,.633.633h7.6a.633.633,0,0,0,.633-.633v-9.5H38.571a.633.633,0,0,1-.633-.633v-3.8a.633.633,0,0,1,.633-.633h5.055v-5.065H38.571a.633.633,0,0,1-.633-.633v-3.8a.633.633,0,0,1,.633-.633h5.055v-4.432A.633.633,0,0,0,42.993,253.714Zm41.795-6.964h-8.23v3.8h8.23a1.9,1.9,0,1,0,0-3.8Zm0,6.964h-7.6a.633.633,0,0,0-.633.633v4.432h5.065a.633.633,0,0,1,.633.633v3.8a.633.633,0,0,1-.633.633H76.557v5.065h5.065a.633.633,0,0,1,.633.633v3.8a.633.633,0,0,1-.633.633H76.557v9.5a.633.633,0,0,0,.633.633h7.6a.633.633,0,0,0,.633-.633V254.347A.633.633,0,0,0,84.787,253.714Z" transform="translate(-33.496 -239.153)" fill="#3189bd"/>
    </g>
  </g>
  <g id="Ellipse_2" data-name="Ellipse 2" fill="none" stroke="#e5e5e5" stroke-width="3">
    <circle cx="59" cy="59" r="59" stroke="none"/>
    <circle cx="59" cy="59" r="57.5" fill="none"/>
  </g>
</svg>
